<svg width="52" height="52" viewBox="0 0 52 48" fill="none" xmlns="http://www.w3.org/2000/svg">
<path d="M11.4142 28.4649C6.31365 26.8087 2.52879 22.9782 0.75 18.3344C4.92015 15.6227 10.2352 14.7469 15.3358 16.4031C17.3716 17.0645 19.1972 18.0727 20.77 19.3402C20.0498 17.4538 19.6548 15.4064 19.6548 13.2668C19.6548 7.90695 22.13 3.12599 26 0C29.8693 3.12599 32.3451 7.90695 32.3451 13.2668C32.3451 15.4064 31.9501 17.4532 31.23 19.3402C32.8027 18.0727 34.6283 17.0645 36.6642 16.4031C41.7647 14.7469 47.0798 15.6221 51.25 18.3344C49.4712 22.9782 45.6863 26.8087 40.5858 28.4649C38.5499 29.1263 36.4794 29.3832 34.4618 29.2818C36.1537 30.3853 37.6778 31.8083 38.9358 33.5392C42.088 37.8756 42.8975 43.1978 41.6055 47.9994C36.6368 47.7437 31.8219 45.3295 28.6697 40.9937C27.4111 39.2622 26.5269 37.374 26 35.4244C25.4731 37.374 24.5889 39.2628 23.3303 40.9943C20.1781 45.3308 15.3631 47.7443 10.3944 48C9.10245 43.1984 9.91195 37.8763 13.0641 33.5398C14.3227 31.8089 15.8463 30.3853 17.5381 29.2824C15.5205 29.3838 13.45 29.1263 11.4142 28.4655V28.4649Z" fill="#DD3A6C"/>
</svg>
